<?xml version="1.0" standalone="no"?>
<!DOCTYPE svg PUBLIC "-//W3C//DTD SVG 20010904//EN"
 "http://www.w3.org/TR/2001/REC-SVG-20010904/DTD/svg10.dtd">
<svg version="1.0" xmlns="http://www.w3.org/2000/svg"
 width="768.000000pt" height="768.000000pt" viewBox="0 0 768.000000 768.000000"
 preserveAspectRatio="xMidYMid meet">
<metadata>
Created by potrace 1.14, written by Peter Selinger 2001-2017
</metadata>
<g transform="translate(0.000000,768.000000) scale(0.100000,-0.100000)"
fill="#000000" stroke="none">
<path d="M4408 7025 c-2 -2 -30 -6 -63 -9 -67 -7 -199 -26 -230 -32 -11 -3
-45 -9 -75 -15 -200 -38 -469 -125 -587 -191 -29 -16 -53 -25 -53 -21 0 4 -4
3 -8 -3 -4 -5 -38 -27 -76 -48 -103 -57 -356 -229 -376 -255 -3 -4 -25 -22
-50 -41 -126 -97 -331 -305 -450 -455 -30 -39 -60 -76 -67 -83 -7 -7 -13 -17
-13 -21 0 -4 -8 -16 -18 -27 -21 -23 -142 -200 -142 -208 0 -3 -13 -24 -29
-48 -31 -48 -86 -147 -136 -248 -46 -91 -115 -239 -115 -246 0 -3 -7 -20 -15
-37 -65 -141 -179 -495 -230 -712 -9 -39 -29 -130 -31 -140 -1 -5 -3 -12 -4
-15 -1 -3 -4 -18 -6 -35 -3 -16 -7 -37 -11 -45 -3 -8 -7 -26 -8 -40 -2 -14
-10 -65 -18 -115 -9 -49 -19 -110 -22 -135 -3 -25 -8 -56 -10 -70 -10 -67 -18
-135 -31 -285 -10 -113 -16 -239 -18 -400 -3 -188 -3 -192 64 -255 82 -77 137
-127 184 -165 28 -22 58 -48 68 -57 10 -10 21 -18 25 -18 3 0 30 -18 59 -40
29 -22 58 -40 64 -40 5 0 10 -4 10 -8 0 -5 12 -15 27 -23 15 -8 57 -32 93 -53
123 -74 327 -165 493 -220 59 -20 83 -24 97 -16 11 6 20 16 21 23 0 7 2 21 4
32 2 11 7 47 10 80 10 100 22 204 29 265 3 19 8 64 12 100 4 36 8 67 9 70 1 3
5 37 9 75 5 39 10 79 12 90 4 20 9 53 19 138 7 50 13 93 20 127 3 14 7 41 9
60 2 19 10 67 16 105 7 39 14 81 16 95 2 14 10 63 19 110 9 47 18 100 21 119
2 19 9 55 15 80 6 25 12 58 14 73 8 55 92 446 99 457 2 3 7 22 10 41 3 19 15
69 26 110 12 41 23 86 26 100 3 14 8 34 11 45 4 11 8 23 9 28 1 4 2 8 3 10 2
1 4 12 7 24 5 26 102 330 114 358 5 11 20 49 34 85 13 36 35 91 50 122 14 31
26 60 26 63 0 23 179 359 283 530 30 49 146 216 191 275 182 237 305 361 571
579 35 28 187 127 260 168 65 36 101 54 197 97 59 27 171 68 196 72 13 3 38
11 55 19 31 13 31 13 7 15 -14 2 -34 4 -45 5 -77 11 -125 17 -156 20 -20 1
-41 5 -45 7 -9 5 -471 8 -476 3z m-1935 -3297 c-4 -62 -10 -177 -12 -230 -1
-25 -10 -32 -78 -65 -43 -20 -80 -39 -83 -42 -5 -6 -214 -109 -228 -113 -4 -1
-16 -10 -26 -20 -11 -10 -23 -18 -27 -18 -7 0 -21 -42 -23 -70 -4 -38 37 -86
114 -133 87 -55 106 -68 161 -115 78 -68 137 -194 142 -306 7 -118 19 -120
-230 42 l-222 144 18 42 c10 23 19 54 20 69 1 15 2 33 2 40 2 38 -17 106 -39
142 -23 38 -99 114 -114 115 -3 0 -16 16 -28 35 -26 42 -34 139 -13 157 7 5
10 14 7 19 -3 5 2 12 10 15 9 3 16 12 16 19 0 11 263 155 300 164 8 2 20 7 25
11 13 11 297 158 306 159 4 1 5 -27 2 -61z"/>
<path d="M5498 6896 c-1 -2 -28 -6 -58 -10 -103 -12 -123 -16 -224 -41 -284
-72 -535 -200 -781 -398 -75 -60 -268 -246 -325 -313 -66 -76 -160 -196 -205
-259 -27 -38 -52 -72 -55 -75 -6 -6 -54 -82 -133 -215 -69 -114 -218 -408
-232 -455 -1 -3 -9 -23 -19 -45 -10 -22 -24 -58 -32 -80 -8 -22 -18 -49 -24
-60 -8 -18 -72 -208 -76 -227 -1 -5 -2 -9 -4 -10 -1 -2 -3 -10 -5 -18 -2 -8
-22 -80 -45 -160 -23 -80 -43 -152 -44 -160 -2 -8 -9 -33 -15 -55 -6 -22 -12
-51 -15 -65 -2 -14 -5 -25 -6 -25 -1 0 -3 -7 -5 -15 -1 -8 -19 -89 -40 -180
-20 -91 -39 -176 -41 -190 -3 -14 -7 -38 -11 -55 -3 -16 -8 -37 -9 -45 -1 -8
-5 -27 -8 -42 -7 -30 -9 -41 -31 -168 -20 -111 -23 -128 -29 -170 -3 -19 -8
-46 -10 -60 -6 -34 -17 -99 -22 -135 -3 -27 -6 -45 -19 -125 -2 -14 -6 -45 -9
-70 -3 -25 -8 -54 -10 -65 -2 -11 -7 -49 -11 -85 -4 -36 -9 -72 -10 -80 -2 -8
-6 -42 -9 -75 -4 -33 -9 -73 -12 -88 -2 -15 -7 -53 -10 -85 -9 -96 -11 -115
-19 -182 -4 -36 -8 -80 -9 -99 l-1 -34 78 -18 c43 -10 88 -21 100 -23 12 -3
31 -7 42 -10 40 -10 231 -47 265 -52 19 -2 42 -6 50 -9 8 -2 42 -7 75 -11 33
-3 74 -8 90 -10 198 -25 804 -25 955 0 14 3 54 7 90 10 73 7 133 14 170 21 14
2 48 7 75 11 28 3 124 22 215 41 229 47 218 45 280 62 25 7 53 15 62 17 10 2
26 6 36 8 9 2 85 27 167 55 83 28 157 53 165 55 8 3 16 5 18 6 1 2 5 3 10 5
47 13 234 97 357 161 198 102 377 216 469 299 22 19 43 35 46 35 4 0 48 42 98
93 95 95 189 208 213 255 8 15 17 29 21 32 20 16 111 235 123 300 11 54 18
142 18 205 -1 104 -12 361 -17 400 -3 17 -7 73 -11 127 -3 53 -8 107 -10 120
-3 12 -7 43 -10 68 -7 76 -21 186 -31 250 -1 8 -5 38 -8 65 -4 28 -9 57 -11
65 -2 8 -7 31 -10 50 -3 19 -17 89 -31 155 -14 66 -27 130 -30 143 -15 73
-100 353 -135 442 -64 165 -144 319 -187 359 -95 89 -268 221 -290 221 -6 0
-12 4 -14 9 -3 9 -179 101 -202 106 -6 1 -24 8 -41 15 -40 16 -155 50 -155 45
0 -3 -10 -1 -23 4 -39 15 -147 25 -267 25 -105 0 -246 -11 -261 -20 -4 -2 -24
-6 -45 -10 -22 -3 -44 -10 -50 -15 -6 -5 -13 -6 -16 -4 -18 19 -311 -127 -388
-193 -8 -7 -42 -34 -75 -60 -81 -63 -243 -227 -335 -337 -41 -49 -78 -91 -82
-93 -5 -2 -8 -8 -8 -13 0 -8 -14 -27 -45 -63 -5 -6 -30 -38 -54 -71 -87 -119
-118 -137 -167 -97 -28 23 -35 47 -24 77 8 21 173 246 216 295 8 8 24 27 36
42 136 162 283 308 403 399 50 38 95 73 100 77 65 51 297 164 365 177 3 1 19
4 35 8 128 30 159 36 245 43 160 14 313 7 440 -20 14 -3 39 -8 55 -12 30 -6
134 -38 170 -54 11 -4 36 -14 55 -21 19 -7 57 -26 84 -42 l49 -28 -17 27 c-10
14 -34 41 -53 58 -19 17 -49 45 -67 61 -120 112 -403 282 -576 344 -19 7 -44
17 -55 21 -19 8 -60 22 -97 33 -9 3 -18 4 -20 3z"/>
<path d="M2435 6195 c-155 -131 -415 -391 -415 -416 0 -5 -4 -9 -8 -9 -4 0
-26 -23 -47 -52 -22 -28 -44 -56 -50 -62 -41 -44 -235 -334 -235 -352 0 -7 -4
-14 -9 -16 -13 -4 -181 -342 -181 -362 0 -9 -4 -16 -10 -16 -5 0 -9 -3 -8 -7
0 -5 -2 -15 -5 -23 -38 -89 -128 -368 -144 -440 -10 -47 -11 -55 -13 -55 -1 0
-3 -7 -5 -15 -1 -8 -8 -40 -14 -70 -18 -86 -20 -101 -32 -170 -5 -36 -12 -76
-14 -90 -4 -24 -9 -64 -20 -182 -3 -29 -8 -71 -11 -93 -10 -63 -11 -285 -1
-285 4 0 6 -4 2 -9 -3 -5 6 -45 20 -88 22 -69 66 -154 117 -225 l17 -23 1 35
c6 153 19 351 25 382 2 9 7 48 10 85 4 37 9 76 11 87 2 10 6 44 10 75 3 31 8
65 10 76 9 46 33 184 40 234 2 19 7 37 9 41 3 4 7 25 11 46 3 22 15 75 26 119
11 44 22 88 24 98 2 9 7 27 10 40 3 12 7 29 9 37 1 8 5 22 8 30 3 8 15 49 27
90 28 95 41 141 48 160 3 8 6 18 7 23 2 4 4 9 5 12 1 3 3 8 5 13 1 4 5 16 9
27 5 11 24 63 43 115 37 99 55 144 78 195 8 17 26 57 40 90 36 80 99 209 105
215 3 3 14 23 25 45 85 170 321 510 454 655 28 30 51 56 51 57 0 6 -6 2 -35
-22z"/>
<path d="M7310 3668 c-2 -326 -202 -681 -544 -966 -49 -41 -210 -159 -236
-172 -14 -7 -27 -16 -30 -20 -15 -20 -430 -240 -453 -240 -3 0 -26 -10 -53
-22 -27 -12 -51 -23 -54 -23 -3 -1 -18 -7 -35 -14 -78 -33 -412 -143 -470
-155 -11 -3 -84 -20 -163 -40 -78 -19 -159 -38 -180 -41 -21 -3 -49 -8 -62
-10 -14 -3 -41 -8 -60 -11 -19 -3 -48 -8 -65 -10 -43 -8 -96 -15 -125 -19 -14
-2 -25 -4 -25 -5 0 -1 -16 -3 -35 -4 -37 -3 -151 -15 -210 -22 -208 -24 -730
-23 -930 1 -48 6 -117 15 -165 21 -46 5 -198 32 -235 41 -29 7 -21 5 -125 28
-44 9 -96 21 -115 26 -121 29 -125 29 -184 5 -67 -28 -83 -26 -212 15 -392
124 -785 366 -1068 657 -73 74 -106 132 -106 184 0 21 -4 38 -8 38 -4 0 -15
12 -24 28 -17 27 -60 82 -88 112 -46 47 -131 204 -155 283 l-11 39 -165 -174
c-91 -95 -179 -187 -195 -204 -25 -27 -128 -138 -279 -299 -70 -75 -193 -211
-222 -245 -15 -18 -37 -42 -49 -54 -32 -33 -129 -176 -149 -221 -24 -51 -29
-182 -9 -220 8 -15 14 -31 14 -37 0 -25 78 -124 167 -214 140 -140 157 -155
418 -373 11 -9 67 -52 125 -96 58 -44 107 -82 110 -85 3 -3 12 -9 21 -15 9 -5
59 -40 110 -76 304 -215 635 -381 811 -406 102 -15 539 -7 698 12 25 3 65 7
90 10 72 8 121 14 159 20 20 4 50 8 66 10 98 12 431 75 580 111 11 3 29 7 40
10 24 5 132 32 158 39 9 3 27 7 40 10 12 2 63 16 112 31 50 14 95 27 100 29 6
1 13 3 17 5 4 1 105 35 225 76 120 41 225 76 233 78 16 5 155 53 180 63 8 4
17 7 20 8 10 3 45 17 65 25 11 4 97 36 190 70 94 35 184 69 200 76 17 7 102
40 190 74 88 34 178 70 200 80 22 9 76 32 120 50 44 18 98 40 120 50 22 10 69
30 105 45 98 41 545 266 548 276 2 5 9 9 15 9 7 0 23 6 37 13 164 88 338 184
435 241 132 77 137 81 299 187 73 47 138 93 146 101 8 8 22 19 31 24 57 33
232 199 284 269 17 22 32 42 36 45 13 12 69 99 69 108 0 6 4 12 8 14 5 2 22
35 37 73 81 199 0 468 -185 618 -25 21 -65 55 -90 77 -25 22 -48 40 -52 40 -5
0 -8 -28 -8 -62z"/>
</g>
</svg>
