<svg xmlns="http://www.w3.org/2000/svg" width="384.275" height="320">
  <defs>
    <linearGradient id="prefix__a" x1=".5" x2=".5" y2="1" gradientUnits="objectBoundingBox">
      <stop offset="0" stop-color="#62efd3"/>
      <stop offset="1" stop-color="#ff729f"/>
    </linearGradient>
  </defs>
  <path d="M16675.943 5484h-.014a102.843 102.843 0 01-11.812-.589c-9.654-1.145-25.172-9.03-43.7-22.2-16.869-11.993-31.764-25.148-39.041-32.866-3.945-4.179-8.949-10.662-6.9-18.675 1.441-5.639 5.883-10.973 10.7-16.395 5.938-6.691 28.951-31.649 43.059-46.014a42.5 42.5 0 007.832 15.4l6.359 7.977c0 .282.006.612.02.931a11.392 11.392 0 003.033 7.529 129.07 129.07 0 0020.045 17.313 133.813 133.813 0 0039.824 19.281 9.645 9.645 0 008.113-1.281c.287-.2.545-.395.785-.6l18.73 4.224.035.008.037.009a207.23 207.23 0 0020.719 3.173 210.55 210.55 0 0021.285 1.033c5.451 0 11.059-.179 17.141-.546 40.379-2.439 77.887-13.245 105.613-30.427 13.664-8.471 24.252-18.059 31.469-28.5 7.613-11.016 11.137-22.5 10.477-34.138l9.654 8.293c3.637 3.951 4.477 5.283 5.881 8.481 2.744 6.262 3.553 11.244 2.623 16.155-1.062 5.642-4.465 11.6-10.707 18.743-4.764 5.45-15.926 18.209-76.625 48.448q-1.078.541-2.061 1.03l-1.146.572c-17.164 8.592-78.756 32.574-109.139 41.039a370.686 370.686 0 01-45.326 9.555 265.063 265.063 0 01-36.963 3.037zm99.141-69.117a197.98 197.98 0 01-40.529-4.053l-16.879-3.8c8.295-84.773 23.229-128.836 27.609-140.322 4.9-12.816 16.035-37.546 35.6-59.185 20.094-22.219 43.09-34.548 68.355-36.645a3.877 3.877 0 00.746-.141c3.25 1.062 6.41 2.234 9.4 3.485a106.22 106.22 0 0119.455 10.556 82.162 82.162 0 0115.158 13.427 75.67 75.67 0 00-13.5-5.944 71.454 71.454 0 00-22.145-3.474 82.424 82.424 0 00-18.7 2.227c-26.484 6.185-46.359 32.868-55.91 45.691l-.521.7-.187.25c-.74.993-1.381 1.85-1.963 2.6a3.7 3.7 0 00.66 5.171 3.686 3.686 0 005.168-.662c.7-.9 1.471-1.939 2.291-3.038l.455-.609c9.031-12.124 27.828-37.35 51.682-42.922a75.011 75.011 0 0117.014-2.029 64.2 64.2 0 0119.883 3.109c10.984 3.574 21.57 10.353 31.465 20.148a127.28 127.28 0 0110.855 25.969 247.558 247.558 0 017.648 34.411c1.158 7.491 2.727 19.51 3.621 34.227.541 8.922.576 14.652.576 14.7v.206c.6 10-2.484 19.98-9.172 29.658-6.635 9.6-16.49 18.489-29.293 26.421-12.932 8.021-28.205 14.638-45.395 19.67a257.954 257.954 0 01-56.777 9.664c-5.926.358-11.377.533-16.67.533zm-67.037-6.179a2.274 2.274 0 01-.648-.094 129.25 129.25 0 01-56.516-34.522 4.082 4.082 0 01-1.08-2.677c0-.123 0-.247-.006-.372 0-.145 0-.291-.008-.44 0-.343-.01-.71-.016-1.088a3.962 3.962 0 000-.482 284.286 284.286 0 011.916-34.925 278.6 278.6 0 0110.744-51.346c7.264-23.127 17.445-43.518 30.26-60.6a154.957 154.957 0 0158.434-47.773 153.364 153.364 0 0141.014-9.758c1.6-.138 3.137-.251 4.572-.337 3.119-.188 6.275-.284 9.385-.284a148.261 148.261 0 0126.172 2.3 102.2 102.2 0 00-25.023 10.207 129.942 129.942 0 00-31.814 26.066c-20.383 22.538-31.943 48.208-37.021 61.5-7.564 19.807-14.236 46.766-19.836 80.13-4.51 26.86-7.109 50.649-8.256 62.439a2.292 2.292 0 01-2.268 2.058zm-10.111-82.591l-28.637 14.605-.555.282-.439.216-.02.011-.012.006a.236.236 0 00-.031.017 8.775 8.775 0 00-.521 15.032 14.077 14.077 0 015.641 7.144c.043.113.08.227.115.346a14.157 14.157 0 01-1.434 11.915l9.041 5.872 13.434 8.724.02-.12.01-.053.027-.169a22.933 22.933 0 00-9.447-22.355c-.275-.193-.516-.356-.732-.5s-.473-.3-.758-.465l-7.316-4.753a5.225 5.225 0 01-1.035-.875 5.392 5.392 0 01-1.424-3.4 5.315 5.315 0 01.869-3.224 5.426 5.426 0 011.953-1.811c.068-.038.137-.072.2-.1l.029-.015 4.254-2.165 1.607-.815 14.314-7.294.844-16.053zm-55.428 32.806l-.682-.855a35.2 35.2 0 01-7.535-25.619l1.191-11.705c3.48-34.318 15.672-64.716 36.236-90.35a172.751 172.751 0 0127.049-26.916 170.615 170.615 0 00-11.971 14.254c-13.318 17.752-23.877 38.888-31.391 62.818a281.657 281.657 0 00-9.916 44.094 303.118 303.118 0 00-2.98 34.278z" transform="translate(-16574.002 -5163.999)" fill="url(#prefix__a)"/>
</svg>
