<svg xmlns="http://www.w3.org/2000/svg" width="24" height="19">
  <path d="M20.561 1.675A20.029 20.029 0 0015.618.142a.075.075 0 00-.079.038 13.952 13.952 0 00-.616 1.264 18.491 18.491 0 00-5.553 0A12.8 12.8 0 008.745.18a.078.078 0 00-.08-.038 19.974 19.974 0 00-4.944 1.533.071.071 0 00-.033.028A20.5 20.5 0 00.1 15.529a.083.083 0 00.032.057A20.141 20.141 0 006.2 18.651a.079.079 0 00.085-.028 14.4 14.4 0 001.241-2.018.077.077 0 00-.042-.107 13.264 13.264 0 01-1.895-.9.078.078 0 01-.008-.129c.127-.1.255-.195.376-.295a.075.075 0 01.079-.011 14.364 14.364 0 0012.207 0 .075.075 0 01.079.01c.122.1.249.2.377.3a.078.078 0 01-.007.129 12.447 12.447 0 01-1.9.9.077.077 0 00-.041.108 16.163 16.163 0 001.24 2.017.077.077 0 00.085.029 20.075 20.075 0 006.075-3.066.078.078 0 00.032-.056 20.365 20.365 0 00-3.59-13.83.062.062 0 00-.032-.029zM8.116 12.769a2.334 2.334 0 01-2.183-2.448 2.322 2.322 0 012.183-2.448 2.309 2.309 0 012.184 2.448 2.322 2.322 0 01-2.184 2.448zm8.071 0A2.334 2.334 0 0114 10.321a2.322 2.322 0 012.183-2.448 2.309 2.309 0 012.183 2.448 2.315 2.315 0 01-2.179 2.448z" fill="currentColor"/>
</svg>
