<svg xmlns="http://www.w3.org/2000/svg" width="23.999" height="17.33">
  <path d="M10.802 14.444a.712.712 0 11-.712.712.712.712 0 01.712-.712m11.023-4.349a.712.712 0 11.712-.712.737.737 0 01-.712.712m0-2.887a2.176 2.176 0 00-2.175 2.175 2.123 2.123 0 00.112.675l-7.161 3.824a2.172 2.172 0 00-1.8-.937 2.231 2.231 0 00-1.95 1.2L2.404 10.77a2.793 2.793 0 01-1.125-2.512 1.357 1.357 0 01.487-1.087.653.653 0 01.637.037l.037.037c1.725.9 7.311 3.824 7.536 3.937a1.163 1.163 0 001.2-.075l11.547-6a.528.528 0 00.375-.487.58.58 0 00-.337-.487c-.675-.3-1.687-.787-2.662-1.237-2.1-.975-4.5-2.1-5.549-2.662a1.764 1.764 0 00-1.762 0l-.262.112c-4.761 2.4-11.06 5.511-11.435 5.736A2.513 2.513 0 00.005 8.225a4.062 4.062 0 001.837 3.712l6.823 3.524a2.208 2.208 0 002.137 1.875 2.168 2.168 0 002.175-2.137l7.5-4.049a2.193 2.193 0 101.35-3.937" fill="currentColor"/>
</svg>
