<svg xmlns="http://www.w3.org/2000/svg" width="22.815" height="22" viewBox="0 0 22.815 22">
  <path d="M11.407,0A11.263,11.263,0,0,0,7.8,21.98c.569.1.754-.245.754-.542v-2.1c-3.173.682-3.834-1.331-3.834-1.331a3,3,0,0,0-1.267-1.65c-1.035-.7.079-.685.079-.685a2.392,2.392,0,0,1,1.748,1.163,2.444,2.444,0,0,0,3.32.937,2.383,2.383,0,0,1,.724-1.507c-2.533-.287-5.2-1.254-5.2-5.574A4.338,4.338,0,0,1,5.3,7.663a4.014,4.014,0,0,1,.111-2.985s.958-.3,3.138,1.156a10.932,10.932,0,0,1,5.712,0C16.443,4.375,17.4,4.678,17.4,4.678a4.011,4.011,0,0,1,.112,2.985,4.326,4.326,0,0,1,1.174,3.027c0,4.332-2.668,5.286-5.208,5.565a2.679,2.679,0,0,1,.782,2.088v3.095c0,.3.183.652.761.541A11.264,11.264,0,0,0,11.407,0Z" fill="currentColor"/>
</svg>
