<svg xmlns="http://www.w3.org/2000/svg" width="24" height="19" viewBox="0 0 24 19">
  <path d="M21.543 4.855c.015.212.015.423.015.637a13.915 13.915 0 01-14.01 14.011A13.939 13.939 0 010 17.291a10.016 10.016 0 001.172.071 9.887 9.887 0 006.115-2.112 4.93 4.93 0 01-4.6-3.419 4.908 4.908 0 002.223-.085A4.924 4.924 0 01.96 6.919v-.062a4.893 4.893 0 002.24.616A4.93 4.93 0 011.671.903a13.975 13.975 0 0010.148 5.14 4.929 4.929 0 018.391-4.491 9.88 9.88 0 003.127-1.2 4.942 4.942 0 01-2.165 2.723A9.793 9.793 0 0024 2.303a10 10 0 01-2.457 2.552z" fill="currentColor"/>
</svg>
