<svg xmlns="http://www.w3.org/2000/svg" width="630" height="206.498" viewBox="0 0 630 206.498" fill="#fff">
  <path d="M184.541 206.494a85.374 85.374 0 00-59.4-49.571 83.848 83.848 0 00-15.638-2.049 75.416 75.416 0 00-6.588 0H70.567a20.118 20.118 0 01-17.679-29.688c.159-.286.318-.564.484-.842l8.856-15.321 3.336-5.774h.008v-.021l29.783-51.6L65.571 0 6 103.249l-1.16 2.009v.008l-.913 1.573a2.137 2.137 0 00-.127.23 32.535 32.535 0 0028.735 47.8A52.377 52.377 0 0164.507 165.7c.357.27.715.548 1.064.834A52.561 52.561 0 0185.165 206.5h99.373zM317.625 154.738v.068h-81.457V51.693h18.166v84.944h45.19zM398.506 69.86V51.693h-74.022v103.113h74.022v-18.168h-55.855v-26.029h48.168v-14.72h-48.168V69.86zM417.263 51.693h18.167v103.113h-18.167zM515.651 136.675h-35.388l41.891-66.843 11.658-18.169h-83.378l18.171 18.169h35.38l-41.892 66.843-11.659 18.161h83.376zM617.732 69.794a51.523 51.523 0 00-39.323-18.169H543.19v103.249h35.219A51.607 51.607 0 00630 105.025v-3.547a51.391 51.391 0 00-12.268-31.684zm-39.323 66.911h-17.058V69.794h17.058a33.456 33.456 0 110 66.911z"/>
</svg>
